<?xml version="1.0" standalone="no"?>
<!DOCTYPE svg PUBLIC "-//W3C//DTD SVG 20010904//EN"
 "http://www.w3.org/TR/2001/REC-SVG-20010904/DTD/svg10.dtd">
<svg version="1.0" xmlns="http://www.w3.org/2000/svg"
 width="193.000000pt" height="193.000000pt" viewBox="0 0 193.000000 193.000000"
 preserveAspectRatio="xMidYMid meet">

<g transform="translate(0.000000,193.000000) scale(0.100000,-0.100000)"
fill="#f06292" stroke="none">
<path d="M641 1769 c-108 -32 -191 -142 -191 -255 l0 -43 -49 1 c-183 1 -307
-202 -231 -380 22 -51 88 -122 113 -122 6 0 -2 -9 -19 -19 -131 -80 -156 -283
-50 -408 37 -44 119 -82 182 -85 l52 -2 4 -56 c17 -229 298 -333 460 -170 l48
47 48 -47 c162 -163 443 -59 460 171 l4 56 51 2 c136 3 247 118 249 259 1 103
-41 187 -116 233 -17 10 -25 19 -19 19 25 0 91 71 113 122 76 177 -47 380
-232 380 l-48 0 0 42 c0 96 -65 198 -153 240 -102 48 -230 26 -309 -54 l-48
-47 -47 47 c-70 70 -175 96 -272 69z m190 -111 c54 -30 74 -77 53 -126 -16
-38 -67 -72 -110 -72 -44 0 -98 39 -102 73 -3 26 -2 27 17 15 17 -11 23 -10
37 4 23 23 10 58 -22 58 -37 0 -64 -34 -64 -79 0 -72 61 -121 151 -121 61 0
126 33 149 74 7 14 16 26 20 26 4 0 13 -12 20 -26 8 -14 34 -37 57 -51 105
-61 243 -6 243 98 0 45 -27 79 -64 79 -32 0 -45 -35 -22 -58 14 -14 20 -15 37
-4 19 12 20 11 17 -15 -4 -33 -58 -73 -100 -73 -65 0 -118 50 -118 110 1 107
173 153 277 74 39 -29 73 -91 73 -131 -1 -37 -31 -103 -61 -130 -44 -40 -126
-73 -194 -80 -37 -3 -65 -11 -65 -17 0 -6 -3 -21 -6 -33 -6 -22 -4 -23 57 -23
35 0 79 4 97 9 33 10 33 9 28 -17 -14 -79 -17 -106 -11 -133 6 -27 11 -30 38
-27 31 3 32 5 35 53 4 72 18 117 55 171 44 67 88 94 149 94 77 0 131 -38 163
-112 46 -112 -27 -257 -118 -234 -90 22 -121 150 -51 205 35 28 59 28 44 1 -8
-15 -6 -24 10 -40 21 -21 45 -18 54 7 10 26 -4 52 -36 69 -78 40 -168 -36
-168 -143 0 -52 35 -118 76 -143 19 -12 34 -23 34 -25 0 -2 -15 -12 -34 -23
-39 -23 -76 -93 -76 -145 0 -103 83 -179 162 -146 53 22 61 93 9 87 -22 -3
-26 -8 -26 -35 0 -28 -3 -32 -20 -27 -66 19 -89 124 -39 183 96 115 242 -45
179 -197 -32 -75 -86 -112 -164 -112 -40 0 -57 6 -92 32 -62 48 -100 122 -108
211 l-6 72 -35 0 c-35 0 -35 0 -35 -45 0 -25 3 -66 7 -92 l7 -46 -32 9 c-17 5
-61 9 -96 9 -61 0 -63 -1 -57 -22 3 -13 6 -28 6 -34 0 -6 27 -14 63 -17 109
-10 199 -62 237 -138 26 -50 25 -85 -2 -139 -56 -110 -212 -141 -297 -58 -94
92 38 230 150 155 19 -12 35 -33 37 -45 3 -20 0 -22 -20 -17 -30 8 -52 -16
-43 -45 9 -27 48 -26 75 2 43 46 17 128 -52 164 -34 18 -110 20 -148 6 -28
-11 -71 -49 -88 -78 -12 -19 -12 -19 -24 0 -16 29 -59 67 -86 77 -36 14 -120
11 -152 -6 -67 -35 -93 -122 -50 -165 27 -27 67 -26 75 0 9 29 -13 53 -43 45
-20 -5 -23 -3 -20 17 2 12 18 33 37 45 112 75 244 -63 150 -155 -84 -82 -241
-52 -296 58 -28 54 -29 89 -3 139 38 76 128 128 237 138 36 3 63 11 63 17 0 6
3 21 6 34 6 21 4 22 -57 22 -35 0 -79 -4 -97 -9 -17 -5 -32 -9 -32 -8 0 1 5
29 10 62 5 33 7 75 4 93 -6 30 -9 33 -38 30 -31 -3 -31 -3 -37 -75 -8 -89 -46
-163 -108 -210 -68 -52 -159 -44 -218 19 -54 58 -68 152 -32 225 38 79 121 94
173 32 50 -59 27 -164 -39 -183 -17 -5 -20 -1 -20 27 0 27 -4 32 -26 35 -52 6
-42 -66 12 -88 76 -32 159 46 159 147 0 52 -37 122 -76 145 -19 11 -34 21 -34
23 0 2 15 13 34 25 41 25 76 91 76 143 0 106 -90 183 -168 143 -33 -17 -45
-40 -37 -66 9 -28 33 -32 55 -10 16 16 18 25 10 40 -15 27 9 27 44 -1 70 -55
39 -183 -51 -205 -91 -23 -164 122 -118 234 32 74 86 112 163 112 61 0 105
-27 149 -94 37 -54 51 -99 55 -171 3 -48 4 -50 35 -53 25 -3 33 1 38 18 6 20
2 75 -11 142 -5 26 -5 27 28 17 18 -5 62 -9 97 -9 61 0 63 1 57 23 -3 12 -6
27 -6 33 0 6 -27 14 -63 17 -112 10 -203 65 -238 142 -24 52 -24 87 1 135 50
98 172 133 271 78z"/>
<path d="M921 1163 c-12 -8 -21 -20 -21 -28 0 -10 -9 -12 -34 -8 -48 8 -80
-25 -71 -73 3 -20 2 -34 -4 -34 -19 0 -41 -32 -41 -60 0 -21 8 -35 26 -46 17
-12 24 -23 20 -37 -12 -49 35 -94 81 -76 17 6 23 4 28 -10 3 -11 19 -24 35
-31 25 -10 34 -10 55 4 14 9 25 23 25 31 0 10 9 12 34 8 48 -8 80 25 71 73 -3
20 -2 34 4 34 19 0 41 32 41 60 0 20 -8 35 -25 46 -18 12 -24 24 -23 49 2 49
-18 68 -64 63 -29 -3 -39 0 -44 14 -4 15 -27 28 -61 34 -6 1 -21 -5 -32 -13z
m97 -146 c47 -43 9 -130 -58 -130 -67 0 -105 87 -57 130 41 38 73 38 115 0z"/>
</g>
</svg>
